<svg width="24" height="24" viewBox="0 0 24 24" fill="none" xmlns="http://www.w3.org/2000/svg">
<path d="M19.0167 3.07715H4.54462C4.1608 3.07715 3.7927 3.22962 3.52129 3.50103C3.24989 3.77243 3.09741 4.14054 3.09741 4.52436V18.9965C3.09741 19.3803 3.24989 19.7484 3.52129 20.0198C3.7927 20.2912 4.1608 20.4437 4.54462 20.4437H19.0167C19.4006 20.4437 19.7687 20.2912 20.0401 20.0198C20.3115 19.7484 20.464 19.3803 20.464 18.9965V4.52436C20.464 4.14054 20.3115 3.77243 20.0401 3.50103C19.7687 3.22962 19.4006 3.07715 19.0167 3.07715V3.07715ZM4.54462 18.9965V4.52436H19.0167V18.9965H4.54462Z" fill="black"/>
<path d="M10.3336 15.7414L6.71558 12.1523L7.86611 11.038L10.3336 13.4621L15.6955 8.14355L16.8461 9.28685L10.3336 15.7414Z" fill="black"/>
</svg>
