<svg width="18" height="19" viewBox="0 0 18 19" fill="none" xmlns="http://www.w3.org/2000/svg">
<path d="M16.0167 0.89502H1.54462C1.1608 0.89502 0.792695 1.04749 0.521291 1.3189C0.249886 1.5903 0.0974121 1.95841 0.0974121 2.34223V16.8143C0.0974121 17.1982 0.249886 17.5663 0.521291 17.8377C0.792695 18.1091 1.1608 18.2616 1.54462 18.2616H16.0167C16.4006 18.2616 16.7687 18.1091 17.0401 17.8377C17.3115 17.5663 17.464 17.1982 17.464 16.8143V2.34223C17.464 1.95841 17.3115 1.5903 17.0401 1.3189C16.7687 1.04749 16.4006 0.89502 16.0167 0.89502V0.89502ZM1.54462 16.8143V2.34223H16.0167V16.8143H1.54462Z" fill="black"/>
</svg>
